<?xml version="1.0" encoding="UTF-8" standalone="no"?>
<svg
   version="1.0"
   width="500.000000pt"
   height="500.000000pt"
   viewBox="0 0 500.000000 500.000000"
   preserveAspectRatio="xMidYMid meet"
   id="svg72"
   sodipodi:docname="logo2.svg"
   inkscape:version="1.2.2 (732a01da63, 2022-12-09)"
   xmlns:inkscape="http://www.inkscape.org/namespaces/inkscape"
   xmlns:sodipodi="http://sodipodi.sourceforge.net/DTD/sodipodi-0.dtd"
   xmlns="http://www.w3.org/2000/svg"
   xmlns:svg="http://www.w3.org/2000/svg">
  <defs
     id="defs76" />
  <sodipodi:namedview
     id="namedview74"
     pagecolor="#ffffff"
     bordercolor="#000000"
     borderopacity="0.25"
     inkscape:showpageshadow="2"
     inkscape:pageopacity="0.0"
     inkscape:pagecheckerboard="0"
     inkscape:deskcolor="#d1d1d1"
     inkscape:document-units="pt"
     showgrid="false"
     inkscape:zoom="4.572"
     inkscape:cx="331.91164"
     inkscape:cy="369.20385"
     inkscape:window-width="1920"
     inkscape:window-height="970"
     inkscape:window-x="-12"
     inkscape:window-y="-12"
     inkscape:window-maximized="1"
     inkscape:current-layer="svg72" />
  <g
     transform="matrix(0.1,0,0,-0.1,-2.6246719,501.31234)"
     fill="#000000"
     stroke="none"
     id="g70"
     style="fill:#ffffff">
    <path
       d="M 2285,4213 C 1882,4165 1579,4040 1304,3809 809,3394 587,2725 721,2055 851,1410 1367,876 2009,724 c 102,-24 105,-24 123,-6 19,18 17,19 -54,31 -190,34 -462,152 -637,277 -604,432 -854,1175 -646,1924 211,760 922,1261 1740,1227 500,-21 944,-233 1250,-598 213,-254 329,-511 390,-863 6,-36 8,-38 23,-22 15,15 15,23 -1,118 -42,248 -166,520 -332,733 -68,87 -220,241 -300,303 -253,198 -533,313 -868,357 -105,13 -331,18 -412,8 z"
       id="path40"
       style="fill:#ffffff" />
    <path
       d="m 2355,3889 c -83,-31 -135,-107 -135,-198 0,-91 50,-161 139,-191 l 50,-16 -69,-124 -68,-123 -69,-22 c -320,-101 -530,-404 -510,-735 3,-52 13,-119 21,-149 l 15,-55 -71,-125 c -39,-69 -72,-128 -74,-130 -3,-3 -21,12 -42,32 -45,44 -78,57 -143,57 -118,0 -202,-84 -202,-201 0,-205 268,-281 376,-107 31,49 39,107 24,161 l -7,27 h 160 161 l 64,-49 c 263,-202 624,-203 888,-3 l 68,52 h 157 157 v -78 c 0,-67 4,-84 24,-114 77,-112 223,-127 317,-33 130,131 40,345 -145,345 -64,0 -111,-21 -151,-66 l -29,-34 -39,68 c -22,37 -55,96 -75,132 l -35,65 18,70 c 26,98 26,248 0,350 -40,158 -136,304 -259,400 -68,51 -205,119 -264,130 -35,7 -41,13 -107,131 -39,68 -70,125 -70,127 0,3 18,7 40,11 56,9 134,84 150,145 23,88 -18,187 -97,234 -39,22 -127,31 -168,16 z m 143,-33 c 157,-82 123,-310 -51,-342 -85,-15 -189,62 -202,149 -12,78 32,164 100,193 40,18 119,17 153,0 z m -38,-515 c 60,-103 63,-96 -40,-96 -49,0 -90,1 -90,3 0,5 85,162 87,162 1,0 20,-31 43,-69 z m 67,-167 c 28,-5 50,-41 272,-436 217,-384 242,-433 237,-463 -8,-41 -75,-147 -129,-202 l -41,-43 h -447 -447 l -52,58 c -28,31 -69,92 -90,134 l -39,78 244,432 c 216,382 247,434 272,439 37,9 183,11 220,3 z m -338,-81 c -18,-32 -111,-197 -207,-368 -96,-170 -181,-321 -190,-335 l -16,-25 -7,30 c -12,56 -9,210 7,275 32,136 122,278 232,365 51,41 183,114 205,115 5,0 -6,-26 -24,-57 z m 530,16 c 119,-58 231,-169 289,-289 56,-115 72,-183 71,-305 -2,-192 11,-205 -225,215 -243,431 -237,420 -228,420 4,0 46,-19 93,-41 z m -944,-931 c 11,-23 37,-65 58,-93 l 38,-50 -61,-3 c -33,-2 -85,-2 -115,0 l -53,3 51,92 c 29,51 54,93 57,93 3,0 14,-19 25,-42 z m 1373,-58 50,-90 h -114 -113 l 54,80 c 30,45 55,85 55,90 0,28 24,1 68,-80 z m -1681,-45 c 50,-21 72,-42 94,-90 36,-78 13,-168 -57,-221 -33,-25 -46,-29 -104,-29 -58,0 -71,4 -104,29 -67,51 -92,138 -61,213 21,50 42,72 90,94 49,23 94,24 142,4 z m 2049,-4 c 107,-49 138,-190 61,-278 -56,-64 -142,-81 -216,-43 -131,66 -131,254 1,319 53,26 100,26 154,2 z m -715,-95 c -19,-23 -156,-85 -223,-101 -82,-19 -238,-19 -313,0 -63,16 -186,71 -220,99 -18,14 13,15 374,16 334,0 392,-2 382,-14 z"
       id="path42"
       style="fill:#ffffff" />
    <path
       d="m 2375,3756 c -16,-7 -40,-25 -53,-38 l -23,-25 32,-28 c 64,-53 111,-54 174,-3 l 36,30 -22,24 c -23,25 -78,54 -101,54 -7,-1 -26,-7 -43,-14 z m 73,-22 c 12,-8 22,-26 22,-38 0,-54 -77,-64 -95,-12 -8,24 -6,31 14,47 28,23 31,23 59,3 z"
       id="path44"
       style="fill:#ffffff" />
    <path
       d="m 2411,3710 c -16,-9 -6,-30 15,-30 15,0 20,25 6,34 -4,2 -14,1 -21,-4 z"
       id="path46"
       style="fill:#ffffff" />
    <path
       d="m 2335,2963 c 8,-111 25,-476 25,-529 v -44 h 58 59 l 6,212 c 4,116 7,262 7,325 v 113 h -80 -80 z"
       id="path48"
       style="fill:#ffffff" />
    <path
       d="m 2360,2235 v -85 h 55 55 v 85 85 h -55 -55 z"
       id="path50"
       style="fill:#ffffff" />
    <path
       d="m 1390,1983 v -47 l -30,29 c -39,37 -52,24 -15,-15 l 29,-30 h -47 c -26,0 -47,-4 -47,-10 0,-5 21,-10 47,-10 h 47 l -29,-30 c -37,-39 -24,-52 15,-15 l 30,29 v -47 c 0,-26 5,-47 10,-47 6,0 10,21 10,47 v 47 l 30,-29 c 39,-37 52,-24 15,15 l -29,30 h 47 c 26,0 47,5 47,10 0,6 -21,10 -47,10 h -47 l 29,30 c 37,39 24,52 -15,15 l -30,-29 v 47 c 0,26 -4,47 -10,47 -5,0 -10,-21 -10,-47 z"
       id="path52"
       style="fill:#ffffff" />
    <path
       d="m 3415,2008 c 32,-17 45,-39 45,-75 0,-42 -38,-83 -76,-83 -27,0 -27,-1 -8,-15 22,-17 67,-19 95,-5 21,12 49,60 49,85 0,53 -51,105 -103,105 -21,-1 -22,-1 -2,-12 z"
       id="path54"
       style="fill:#ffffff" />
    <path
       d="m 3958,2013 c -8,-10 -22,-36 -31,-59 l -16,-41 95,-33 c 92,-32 143,-35 71,-5 -34,14 -35,16 -26,44 8,24 18,31 50,36 57,10 62,28 5,20 -37,-6 -46,-4 -46,7 0,41 -74,63 -102,31 z m 82,-18 c 10,-12 10,-24 1,-55 -13,-43 -21,-46 -70,-29 -35,12 -38,26 -16,69 12,23 23,30 44,30 16,0 34,-7 41,-15 z"
       id="path56"
       style="fill:#ffffff" />
    <path
       d="m 3820,1711 c 0,-7 25,-44 57,-84 73,-93 71,-92 80,-84 3,4 -4,18 -17,32 l -24,25 22,38 c 18,32 27,38 64,42 57,7 39,16 -47,24 -38,4 -85,10 -102,13 -22,3 -33,1 -33,-6 z m 92,-17 c 37,-6 37,-7 23,-35 -22,-42 -31,-42 -65,1 -35,44 -32,46 42,34 z"
       id="path58"
       style="fill:#ffffff" />
    <path
       d="m 3690,1516 c 0,-3 12,-37 26,-76 14,-40 24,-73 22,-75 -2,-2 -37,3 -78,11 -41,7 -77,10 -81,6 -10,-9 138,-135 152,-130 6,2 -16,26 -50,53 -33,28 -60,53 -60,56 -1,4 29,0 66,-7 36,-8 69,-12 72,-9 3,4 -4,34 -17,67 -12,34 -20,63 -18,65 2,2 31,-19 65,-48 33,-28 61,-45 60,-37 -1,25 -159,148 -159,124 z"
       id="path60"
       style="fill:#ffffff" />
    <path
       d="m 3450,1265 c 0,-11 123,-155 132,-155 16,0 7,13 -53,84 -59,68 -79,86 -79,71 z"
       id="path62"
       style="fill:#ffffff" />
    <path
       d="m 3243,1114 c -24,-14 -43,-28 -43,-32 0,-4 24,-44 53,-89 l 52,-81 40,27 c 58,39 72,69 56,120 -8,29 -22,48 -44,61 -42,26 -63,25 -114,-6 z m 118,-23 c 40,-41 39,-83 -2,-122 -18,-16 -37,-28 -43,-26 -5,2 -30,34 -53,70 l -43,67 32,20 c 45,28 75,25 109,-9 z"
       id="path64"
       style="fill:#ffffff" />
    <path
       d="m 3048,1015 c -8,-8 67,-178 81,-183 13,-4 8,11 -40,116 -19,41 -37,71 -41,67 z"
       id="path66"
       style="fill:#ffffff" />
    <path
       d="m 2806,928 c -43,-12 -43,-12 -5,-140 19,-66 21,-68 47,-62 15,3 43,14 62,23 28,13 36,23 38,48 2,24 -2,34 -17,43 -16,8 -19,17 -15,39 11,53 -28,70 -110,49 z m 92,-45 c -2,-20 -12,-29 -42,-40 -45,-15 -53,-10 -62,34 -6,29 -4,31 32,40 51,13 76,0 72,-34 z m 26,-62 c 24,-27 8,-54 -42,-69 -52,-16 -49,-16 -57,18 -9,42 -8,44 28,57 45,16 52,16 71,-6 z"
       id="path68"
       style="fill:#ffffff" />
  </g>
</svg>
