<?xml version="1.0" encoding="UTF-8" standalone="no"?>
<svg
   viewBox="0,0,256,256"
   width="28px"
   height="28px"
   fill-rule="nonzero"
   version="1.1"
   id="svg8"
   sodipodi:docname="s1.svg"
   inkscape:version="1.2.2 (732a01da63, 2022-12-09)"
   xmlns:inkscape="http://www.inkscape.org/namespaces/inkscape"
   xmlns:sodipodi="http://sodipodi.sourceforge.net/DTD/sodipodi-0.dtd"
   xmlns="http://www.w3.org/2000/svg"
   xmlns:svg="http://www.w3.org/2000/svg">
  <defs
     id="defs12" />
  <sodipodi:namedview
     id="namedview10"
     pagecolor="#ffffff"
     bordercolor="#000000"
     borderopacity="0.25"
     inkscape:showpageshadow="2"
     inkscape:pageopacity="0.0"
     inkscape:pagecheckerboard="0"
     inkscape:deskcolor="#d1d1d1"
     showgrid="false"
     inkscape:zoom="27.214286"
     inkscape:cx="3.5091864"
     inkscape:cy="14"
     inkscape:window-width="1920"
     inkscape:window-height="970"
     inkscape:window-x="-12"
     inkscape:window-y="-12"
     inkscape:window-maximized="1"
     inkscape:current-layer="svg8" />
  <g
     fill="#ffffff"
     fill-rule="nonzero"
     stroke="none"
     stroke-width="1"
     stroke-linecap="butt"
     stroke-linejoin="miter"
     stroke-miterlimit="10"
     stroke-dasharray="none"
     stroke-dashoffset="0"
     font-family="none"
     font-weight="none"
     font-size="none"
     text-anchor="none"
     style="mix-blend-mode:normal"
     id="g6"
     transform="matrix(1.0807591,0,0,1.0524934,-25.455279,-29.060367)">
    <g
       transform="scale(4)"
       id="g4">
      <path
         d="M 56.456,17.442 C 56.117,16.002 55.035,14.847 53.59,14.389 49.761,13.174 41.454,12 32,12 22.546,12 14.239,13.174 10.409,14.389 8.964,14.847 7.882,16.002 7.543,17.442 6.903,20.161 6,25.203 6,32 c 0,6.797 0.903,11.839 1.544,14.558 0.339,1.44 1.421,2.595 2.866,3.053 C 14.239,50.826 22.546,52 32,52 c 9.454,0 17.761,-1.174 21.591,-2.389 1.445,-0.458 2.527,-1.613 2.866,-3.053 C 57.097,43.839 58,38.797 58,32 58,25.203 57.097,20.161 56.456,17.442 Z M 27,40 V 24 l 14.857,8 z"
         id="path2" />
    </g>
  </g>
</svg>
