<svg xmlns="http://www.w3.org/2000/svg" xmlns:xlink="http://www.w3.org/1999/xlink" viewBox="0,0,256,256" width="26px" height="26px" fill-rule="nonzero"><g fill="#ffffff" fill-rule="nonzero" stroke="none" stroke-width="1" stroke-linecap="butt" stroke-linejoin="miter" stroke-miterlimit="10" stroke-dasharray="" stroke-dashoffset="0" font-family="none" font-weight="none" font-size="none" text-anchor="none" style="mix-blend-mode: normal"><g transform="scale(5.12,5.12)"><path d="M28.15625,7.01953c-0.38018,-0.02216 -0.76692,-0.01007 -1.1582,0.0332c-1.56513,0.17311 -3.19405,0.85961 -4.69336,1.97461c-0.00458,0.00322 -0.00914,0.00647 -0.01367,0.00977c-2.88493,2.2188 -5.57062,5.85271 -7.78906,9.24414c0.04099,-0.77315 0.15458,-1.42608 0.12695,-2.21484c-0.07401,-2.11307 -0.43902,-4.23645 -1.76367,-5.77539c-2.59781,-3.0165 -8.352,-2.76744 -10.75781,1.88281c-0.00401,0.00776 -0.00792,0.01557 -0.01172,0.02344c-0.27858,0.57268 -0.64714,1.25301 -0.83789,2.08984c-1.17155,3.11371 -1.72176,9.61891 -0.95508,15.97266c0.38534,3.19346 1.11741,6.31143 2.37891,8.86328c1.2615,2.55185 3.11289,4.59049 5.70117,5.29102c0.0226,0.00601 0.0454,0.01122 0.06836,0.01563c2.31753,0.46018 4.29927,0.11523 5.90039,-0.83984c1.60112,-0.95507 2.80067,-2.45001 3.84766,-4.18555c1.49774,-2.48273 2.81277,-5.4828 4.2793,-8.46289c0.40965,4.21205 2.04886,7.02015 4.3125,8.39063c2.92893,1.77327 6.6346,0.9869 8.99805,-1.62695c1.26739,-1.25454 2.151,-3.12826 3.38086,-5.65625c1.23549,-2.53956 2.78444,-5.74888 5.15625,-9.61523c1.94042,-3.16202 3.42394,-5.1269 4.41016,-6.72266c0.97824,-1.58286 1.49067,-3.00179 1.13086,-4.5625c-0.25625,-1.41061 -1.3579,-2.38778 -2.58008,-2.77344c-1.41827,-0.50009 -2.93866,-0.20174 -4.37891,0.45313c-1.44733,0.65809 -2.8732,1.69104 -4.23437,2.875c-1.68996,1.46993 -3.15751,3.09792 -4.44336,4.64063c0.09545,-3.92667 -0.96448,-6.71104 -2.92383,-8.1875c-0.93233,-0.70255 -2.00985,-1.07024 -3.15039,-1.13672zM27.96875,8.99805c0.80167,0.04181 1.52612,0.29722 2.13477,0.75586c1.62305,1.22304 2.76504,4.2407 1.85742,9.63672c-0.07533,0.45827 0.17472,0.90809 0.6037,1.08602c0.42898,0.17793 0.924,0.03713 1.19513,-0.33993c1.28777,-1.802 3.68767,-4.71744 6.22656,-6.92578c1.26945,-1.10417 2.5768,-2.02906 3.75,-2.5625c1.1732,-0.53344 2.15023,-0.65616 2.89648,-0.38867c0.01422,0.00488 0.02855,0.00944 0.04297,0.01367c0.60795,0.18817 1.14487,0.71863 1.23438,1.24023c0.00324,0.02095 0.00715,0.0418 0.01172,0.0625c0.23372,0.97621 0.0096,1.63375 -0.88672,3.08398c-0.89628,1.45024 -2.42948,3.49258 -4.41406,6.72656c-2.42719,3.95665 -4.01529,7.25317 -5.24805,9.78711c-1.23276,2.53394 -2.14875,4.2905 -3,5.12695c-0.01548,0.01513 -0.03046,0.03077 -0.04492,0.04688c-1.81682,2.02811 -4.41461,2.53718 -6.50195,1.27344c-2.08734,-1.26374 -3.88227,-4.50589 -3.39648,-10.64648c0.03646,-0.461 -0.2479,-0.88688 -0.68767,-1.02991c-0.43977,-0.14303 -0.92024,0.0341 -1.16194,0.42834c-2.5913,4.23352 -4.17752,8.82682 -6.0918,12c-0.95714,1.58659 -1.97882,2.79417 -3.16211,3.5c-1.17322,0.69983 -2.53151,0.96809 -4.44336,0.59766c-1.86593,-0.51528 -3.30544,-2.00362 -4.4082,-4.23437c-1.10794,-2.24121 -1.81814,-5.172 -2.18555,-8.2168c-0.73481,-6.08959 -0.04216,-12.75795 0.84961,-15.08789c0.01919,-0.05078 0.03421,-0.10303 0.04492,-0.15625c0.10102,-0.49159 0.38854,-1.03747 0.70508,-1.6875c1.83025,-3.52509 5.878,-3.33025 7.46094,-1.49219c0.82035,0.95306 1.21451,2.63534 1.28125,4.54102c0.06674,1.90568 -0.1639,3.98152 -0.33008,5.66797c-0.04469,0.46815 0.24283,0.90419 0.69073,1.04754c0.4479,0.14335 0.93516,-0.04473 1.1706,-0.45184c2.16853,-3.76727 6.02914,-9.2189 9.33594,-11.76758l0.00391,-0.00195c1.26738,-0.94167 2.51036,-1.46707 3.64063,-1.60352c0.28285,-0.03414 0.55895,-0.04324 0.82617,-0.0293z"></path></g></g></svg>