<?xml version="1.0" encoding="UTF-8" standalone="no"?>
<svg
   viewBox="0,0,256,256"
   width="26px"
   height="26px"
   fill-rule="nonzero"
   version="1.1"
   id="svg8"
   sodipodi:docname="s3.svg"
   inkscape:version="1.2.2 (732a01da63, 2022-12-09)"
   xmlns:inkscape="http://www.inkscape.org/namespaces/inkscape"
   xmlns:sodipodi="http://sodipodi.sourceforge.net/DTD/sodipodi-0.dtd"
   xmlns="http://www.w3.org/2000/svg"
   xmlns:svg="http://www.w3.org/2000/svg">
  <defs
     id="defs12" />
  <sodipodi:namedview
     id="namedview10"
     pagecolor="#ffffff"
     bordercolor="#000000"
     borderopacity="0.25"
     inkscape:showpageshadow="2"
     inkscape:pageopacity="0.0"
     inkscape:pagecheckerboard="0"
     inkscape:deskcolor="#d1d1d1"
     showgrid="false"
     inkscape:zoom="29.307692"
     inkscape:cx="12.198163"
     inkscape:cy="13"
     inkscape:window-width="1920"
     inkscape:window-height="970"
     inkscape:window-x="-12"
     inkscape:window-y="-12"
     inkscape:window-maximized="1"
     inkscape:current-layer="svg8" />
  <g
     fill="#ffffff"
     fill-rule="nonzero"
     stroke="none"
     stroke-width="1"
     stroke-linecap="butt"
     stroke-linejoin="miter"
     stroke-miterlimit="10"
     stroke-dasharray="none"
     stroke-dashoffset="0"
     font-family="none"
     font-weight="none"
     font-size="none"
     text-anchor="none"
     style="mix-blend-mode:normal"
     id="g6"
     transform="translate(-19.485564,-8.7349081)">
    <g
       transform="scale(5.12)"
       id="g4">
      <path
         d="M 41,4 H 9 C 6.243,4 4,6.243 4,9 v 32 c 0,2.757 2.243,5 5,5 h 32 c 2.757,0 5,-2.243 5,-5 V 9 C 46,6.243 43.757,4 41,4 Z m -3.994,18.323 c -0.227,0.021 -0.457,0.035 -0.69,0.035 -2.623,0 -4.928,-1.349 -6.269,-3.388 0,5.349 0,11.435 0,11.537 0,4.709 -3.818,8.527 -8.527,8.527 -4.709,0 -8.527,-3.818 -8.527,-8.527 0,-4.709 3.818,-8.527 8.527,-8.527 0.178,0 0.352,0.016 0.527,0.027 v 4.202 C 21.872,26.188 21.7,26.156 21.52,26.156 c -2.404,0 -4.352,1.948 -4.352,4.352 0,2.404 1.948,4.352 4.352,4.352 2.404,0 4.527,-1.894 4.527,-4.298 0,-0.095 0.042,-19.594 0.042,-19.594 h 4.016 c 0.378,3.591 3.277,6.425 6.901,6.685 z"
         id="path2" />
    </g>
  </g>
</svg>
